<svg width="264" height="264" viewBox="0 0 264 264" fill="none" xmlns="http://www.w3.org/2000/svg">
<path d="M77.549 145.978C105.025 136.214 120.112 110.427 113.32 72.68C129.665 115.318 152.432 117.19 184.576 114.605C140.18 129.328 143.689 164.619 147.645 191.233C129.821 146.465 99.2583 141.323 77.549 145.978Z" fill="white"/>
<path d="M246.288 195.92C247.347 194.032 248.356 192.129 249.313 190.212L246.233 188.674C245.301 190.541 244.318 192.395 243.285 194.234L246.288 195.92Z" fill="white"/>
<path d="M19.8664 68.8053C20.8992 66.9657 21.9704 65.1616 23.0786 63.3936L20.1614 61.5652C19.0238 63.3802 17.9243 65.2319 16.8643 67.1199L19.8664 68.8053Z" fill="white"/>
<path d="M201.531 20.1049C199.716 18.9673 197.864 17.8678 195.976 16.8078C194.088 15.7479 192.185 14.7396 190.269 13.7824L188.73 16.8623C190.597 17.7947 192.451 18.7771 194.291 19.8099C196.13 20.8427 197.934 21.9139 199.702 23.0221L201.531 20.1049Z" fill="white"/>
<path d="M178.449 8.58191C174.397 7.03098 170.301 5.69389 166.178 4.56662L165.27 7.88757C169.285 8.98512 173.272 10.287 177.219 11.7973L178.449 8.58191Z" fill="white"/>
<path d="M153.57 1.78212C149.306 1.0594 145.028 0.55217 140.75 0.256132L140.512 3.69072C144.678 3.97896 148.843 4.47285 152.995 5.17651L153.57 1.78212Z" fill="white"/>
<path d="M127.841 0C123.529 0.126556 119.233 0.465018 114.97 1.01092L115.407 4.42584C119.559 3.89416 123.743 3.56456 127.942 3.44131L127.841 0Z" fill="white"/>
<path d="M102.258 3.27443C98.0604 4.23539 93.9116 5.4008 89.8275 6.76616L90.9191 10.0313C94.8969 8.70149 98.9379 7.56638 103.026 6.6304L102.258 3.27443Z" fill="white"/>
<path d="M77.7966 11.4528C73.8725 13.2067 70.0288 15.1547 66.2812 17.2922L67.9869 20.2827C71.6364 18.2012 75.3797 16.3041 79.2015 14.5959L77.7966 11.4528Z" fill="white"/>
<path d="M55.3941 24.2325C51.8961 26.7127 48.5074 29.3737 45.2434 32.211L47.5021 34.8093C50.68 32.0468 53.9794 29.456 57.3854 27.0409L55.3941 24.2325Z" fill="white"/>
<path d="M35.9301 41.153C32.9966 44.2626 30.1966 47.5365 27.5443 50.9708L30.2692 53.0751C32.8519 49.7309 35.5782 46.543 38.4344 43.5154L35.9301 41.153Z" fill="white"/>
<path d="M254.513 178.393C256.064 174.34 257.401 170.245 258.529 166.121L255.208 165.214C254.11 169.228 252.808 173.216 251.298 177.162L254.513 178.393Z" fill="white"/>
<path d="M261.313 153.514C262.036 149.25 262.543 144.971 262.839 140.694L259.405 140.456C259.116 144.621 258.623 148.787 257.919 152.939L261.313 153.514Z" fill="white"/>
<path d="M263.096 127.785C262.969 123.473 262.631 119.177 262.085 114.913L258.67 115.351C259.201 119.503 259.531 123.686 259.654 127.886L263.096 127.785Z" fill="white"/>
<path d="M259.821 102.202C258.86 98.0042 257.695 93.8553 256.33 89.7712L253.064 90.8628C254.394 94.8406 255.529 98.8816 256.465 102.97L259.821 102.202Z" fill="white"/>
<path d="M251.643 77.7403C249.889 73.8162 247.941 69.9724 245.804 66.2249L242.813 67.9306C244.895 71.58 246.792 75.3234 248.5 79.1451L251.643 77.7403Z" fill="white"/>
<path d="M238.863 55.3377C236.383 51.8397 233.722 48.451 230.885 45.187L228.287 47.4457C231.049 50.6236 233.64 53.923 236.055 57.3291L238.863 55.3377Z" fill="white"/>
<path d="M221.943 35.8736C218.833 32.9401 215.559 30.1401 212.125 27.4879L210.021 30.2127C213.365 32.7954 216.553 35.5218 219.58 38.3779L221.943 35.8736Z" fill="white"/>
<path d="M246.213 196.053C210.608 259.305 130.485 281.774 67.1761 246.232C3.86709 210.69 -18.671 130.586 16.7897 67.2536L19.7918 68.939C-14.7381 130.614 7.21047 208.619 68.8615 243.23C130.512 277.841 208.537 255.962 243.211 194.368L246.213 196.053Z" fill="white"/>
</svg>
