<svg width="29" height="30" viewBox="0 0 29 30" fill="none" xmlns="http://www.w3.org/2000/svg">
<path fill-rule="evenodd" clip-rule="evenodd" d="M14.4 29.4C16.291 29.4 18.1636 29.0275 19.9106 28.3038C21.6577 27.5802 23.2452 26.5195 24.5823 25.1823C25.9195 23.8451 26.9802 22.2577 27.7039 20.5106C28.4275 18.7635 28.8 16.891 28.8 15C28.8 13.1089 28.4275 11.2364 27.7039 9.48933C26.9802 7.74225 25.9195 6.1548 24.5823 4.81764C23.2452 3.48047 21.6577 2.41978 19.9106 1.69611C18.1636 0.972442 16.291 0.599976 14.4 0.599976C10.5809 0.599976 6.91819 2.11711 4.21766 4.81764C1.51714 7.51816 0 11.1809 0 15C0 18.8191 1.51714 22.4818 4.21766 25.1823C6.91819 27.8828 10.5809 29.4 14.4 29.4ZM14.0288 20.824L22.0288 11.224L19.5712 9.17597L12.6912 17.4304L9.1312 13.8688L6.8688 16.1312L11.6688 20.9312L12.9072 22.1696L14.0288 20.824Z" fill="#9D56DA"/>
</svg>
